<svg id="Layer_1" data-name="Layer 1" xmlns="http://www.w3.org/2000/svg" viewBox="0 0 1920 1080"><polygon points="585.42 608.12 577.8 589.35 573.3 578.14 570.11 570.43 561.1 570.43 568.71 589.35 561.1 608.12 545.77 570.43 536.68 570.43 561.1 630.73 573.3 600.58 585.42 630.73 609.83 570.43 600.74 570.43 585.42 608.12"/><polygon points="662.59 607.55 686.1 607.55 686.1 599.35 653.9 599.35 653.9 630.39 689.29 630.39 689.29 621.8 662.59 621.8 662.59 607.55"/><rect x="653.9" y="570.6" width="34.82" height="8.43"/><polygon points="742.04 607.55 765.57 607.55 765.57 599.35 733.37 599.35 733.37 630.39 768.75 630.39 768.75 621.8 742.04 621.8 742.04 607.55"/><rect x="733.37" y="570.6" width="34.82" height="8.43"/><polygon points="837.23 608.28 821.92 570.6 812.83 570.6 837.23 630.89 861.65 570.6 852.55 570.6 837.23 608.28"/><path d="M947.74,589.44c0-.33-.09-.66-.12-1a3.35,3.35,0,0,0-.2-.91v-.4a4,4,0,0,1-.25-.74c0-.22-.12-.47-.17-.74A20.47,20.47,0,0,0,938.08,574a24.7,24.7,0,0,0-12.86-3.53H905.71v7.71h20.57a10.8,10.8,0,0,1,5,1.15,12.91,12.91,0,0,1,3.89,3,14.5,14.5,0,0,1,2.62,4.31,13.3,13.3,0,0,1,0,10.07,15.31,15.31,0,0,1-2.62,4.31,12.72,12.72,0,0,1-3.89,3,10.8,10.8,0,0,1-5,1.15H905.71v7.69h19.51c.76,0,1.47,0,2.12-.08s1.31-.13,2-.24l9.26,18.1h9.26l-10.58-20.8a1.08,1.08,0,0,1,.41-.25,1.16,1.16,0,0,0,.42-.24,20.55,20.55,0,0,0,5.52-5,20.88,20.88,0,0,0,3.4-6.62,7.06,7.06,0,0,1,.42-1.56v-.32a4.49,4.49,0,0,0,.2-1c0-.3.07-.62.12-.95v-.15a6.75,6.75,0,0,0,.09-1v-2.29a6.62,6.62,0,0,0-.09-1Z"/><path d="M1024.83,598.78a21.78,21.78,0,0,0,2.24-2.26,17.7,17.7,0,0,0,2-2.73,15,15,0,0,0,1.39-3.24,12.92,12.92,0,0,0,.53-3.82,15.53,15.53,0,0,0-1.27-6.3,16.17,16.17,0,0,0-3.47-5.16,16.56,16.56,0,0,0-5.16-3.49,15.74,15.74,0,0,0-6.23-1.27H991.89v7.7h21.46a8.4,8.4,0,0,1,8.52,8.61,8.44,8.44,0,0,1-.65,3.27,8.8,8.8,0,0,1-1.8,2.75,8.09,8.09,0,0,1-2.71,1.84,8.5,8.5,0,0,1-3.36.66H991.89v35.22h23.36a16.77,16.77,0,0,0,6.79-1.39,17.53,17.53,0,0,0,5.56-3.81,18.48,18.48,0,0,0,3.78-5.61,16.82,16.82,0,0,0,1.39-6.8,16.54,16.54,0,0,0-2.17-8.48A14.8,14.8,0,0,0,1024.83,598.78Zm-1.93,17.93a10.16,10.16,0,0,1-2.13,3.17,11,11,0,0,1-3.15,2.16,9.18,9.18,0,0,1-3.85.82h-13.11V603h13.11a9.64,9.64,0,0,1,3.85.78,10.34,10.34,0,0,1,3.15,2.14,10.07,10.07,0,0,1,2.13,3.15,9.64,9.64,0,0,1,.78,3.85A9.31,9.31,0,0,1,1022.9,616.71Z"/><rect x="1076.84" y="570.51" width="8.77" height="60.05"/><path d="M1171.71,589.44a6.76,6.76,0,0,1-.13-1,3,3,0,0,0-.21-.91v-.4c-.1-.27-.18-.52-.25-.74s-.1-.47-.15-.74A20.46,20.46,0,0,0,1162,574a24.53,24.53,0,0,0-5.93-2.58c-1.08-.31-7.07-.56-13.1-.71s-12.1-.24-13.32-.24v7.71h20.55a10.85,10.85,0,0,1,5,1.15,13.29,13.29,0,0,1,3.89,3,14.71,14.71,0,0,1,2.62,4.31,13.3,13.3,0,0,1,0,10.07,15.54,15.54,0,0,1-2.62,4.31,13.09,13.09,0,0,1-3.89,3,10.85,10.85,0,0,1-5,1.15h-20.55v7.69c.77,0,21,0,21.62-.08s1.32-.13,2-.24l9.26,18.1h9.26l-10.57-20.8a.91.91,0,0,1,.4-.25,1,1,0,0,0,.41-.24,20.64,20.64,0,0,0,5.54-5,21.52,21.52,0,0,0,3.4-6.62,6.89,6.89,0,0,1,.4-1.56v-.32a4,4,0,0,0,.21-1,6.74,6.74,0,0,1,.13-.95v-.15a6.71,6.71,0,0,0,.08-1v-2.29a6.61,6.61,0,0,0-.08-1Z"/><path d="M1257.38,579.37a29.14,29.14,0,0,0-9.2-6.47,27.5,27.5,0,0,0-11.35-2.39h-21v60h21a28.08,28.08,0,0,0,11.55-2.37,29,29,0,0,0,9.21-6.43,30,30,0,0,0,6.11-9.51,30.6,30.6,0,0,0,2.2-11.67,29.91,29.91,0,0,0-2.28-11.67A30.8,30.8,0,0,0,1257.38,579.37Zm-2.12,29.84a22.17,22.17,0,0,1-4.35,7.09,20.53,20.53,0,0,1-6.62,4.8,20,20,0,0,1-8.45,1.76h-11.21V578.21h11.21a19.84,19.84,0,0,1,8.35,1.77,21,21,0,0,1,6.68,4.81,21.38,21.38,0,0,1,4.39,7.09,25,25,0,0,1,0,17.33Z"/><path d="M1179,392.56a2.11,2.11,0,1,0,2.11-2.11A2.11,2.11,0,0,0,1179,392.56Z"/><path d="M1156.48,409.38h0c3.43-4.16,12.07-.86,15.08,0v-9.3l-5.83-4.67-37.92,3,18.08,5.4A31.08,31.08,0,0,1,1156.48,409.38Z"/><path d="M1170.26,381.6l-1.09.18c-.8.14-22.73,6-33.59,14.47l30.56-2.85Z"/><path d="M1382.27,698.61l-53.15-70L1359.93,675l-1.07.76L1312,613.5l34.37,53.28-1.07.74-46.15-64.08,21.4,35.58-1.07.74c-.94-1.24-2.15-2.87-3.61-4.87A425.44,425.44,0,0,0,1262.31,574c-11.65-10.93-23-10.76-36.17-10.55-3.32.05-6.73.1-10.3,0h-.63v-22l-6.68-4.68c-13.51-13-18.69-24.63-26.54-42.18l-.09-.21a123.62,123.62,0,0,1-3.54-14.64c2-2.14,4.15-4.53,5.81-6.48,2.58-3.08,6.48-7.71,13.1-15.2l.85-1,3.4,16.31c0,.1.69,3.2.69,3.28,0,.39,1.49,2.31,12.72,17.21,5.57,7.38,29.11,37.61,40.6,52.88L1204,473l-3.82-18.34.19-.24c.14-.18.26-.3.36-.42.42-.46.42-.46,2.31-4.77,1.1-2.53,2.86-6.51,5.7-12.88l.15-.35.38,0c7.18-.68,11.8-.95,14.86-1.12,5.13-.29,5.62-.36,6.55-1.38l.44-.51.49.47c9.14,8.66,31.39,33.71,40.48,79.16.25,1.17,9.61,26.68,15.85,43.55l.09.25-2.7,5.7,52.88,71.42,45.09,64.37Z"/><path d="M1180.88,396.76c-2.38.16-4.44-2.34-5.05-3.18,2.63-6,6.55-6.29,10.52-2.13C1184.66,394.86,1182.81,396.65,1180.88,396.76Zm34.31,3.07c-.08-.19-10.38-18.44-42.39-18.44l-1.35,4.05c-.16.56-.39,1.21-.7,2h0c-.59,1.54-1.4,3.66-2.39,6.78l5.24,4.19v14.26c-4.91-2.17-9-3.28-12.08-3.28a8.67,8.67,0,0,0-1.52.11l-1.22.19.84.9c4.79,5,7.78,9.5,8.9,13.42a12.52,12.52,0,0,1,.45,2.47c1.08,13.63,8.56,48.49,8.64,48.84l.27,1.27,21-24.42,8.29-18.66,22.07-1.64Z"/></svg>