<svg id="Layer_1" data-name="Layer 1" xmlns="http://www.w3.org/2000/svg" xmlns:xlink="http://www.w3.org/1999/xlink" viewBox="0 0 1920 1080"><defs><style>.cls-1{fill:url(#linear-gradient);}</style><linearGradient id="linear-gradient" x1="536.68" y1="540" x2="1383.32" y2="540" gradientUnits="userSpaceOnUse"><stop offset="0" stop-color="#f9f295"/><stop offset="0.14" stop-color="#efd673"/><stop offset="0.33" stop-color="#e0aa3e"/><stop offset="0.66" stop-color="#f9f295"/><stop offset="0.74" stop-color="#eada83"/><stop offset="1" stop-color="#b88a44"/></linearGradient></defs><path class="cls-1" d="M600.74,570.43h9.09l-24.4,60.3L573.3,600.58l-12.2,30.15-24.42-60.3h9.09l15.33,37.69,7.61-18.77-7.61-18.92h9l3.19,7.71,4.5,11.21,7.63,18.77Zm61.85,37.12H686.1v-8.2H653.9v31h35.39V621.8h-26.7Zm26.13-36.95H653.9V579h34.82ZM742,607.55h23.52v-8.2H733.37v31h35.38V621.8H742Zm26.14-36.95H733.37V579h34.81Zm69.05,37.69L821.92,570.6h-9.09l24.4,60.29,24.42-60.29h-9.1Zm110.51-18.85c0-.33-.09-.66-.12-1a3.35,3.35,0,0,0-.2-.91v-.4a4,4,0,0,1-.25-.74c0-.22-.12-.47-.17-.74A20.47,20.47,0,0,0,938.08,574a24.7,24.7,0,0,0-12.86-3.53H905.71v7.71h20.57a10.8,10.8,0,0,1,5,1.15,12.91,12.91,0,0,1,3.89,3,14.5,14.5,0,0,1,2.62,4.31,13.3,13.3,0,0,1,0,10.07,15.31,15.31,0,0,1-2.62,4.31,12.72,12.72,0,0,1-3.89,3,10.8,10.8,0,0,1-5,1.15H905.71v7.69h19.51c.76,0,1.47,0,2.12-.08s1.31-.13,2-.24l9.26,18.1h9.26l-10.58-20.8a1.08,1.08,0,0,1,.41-.25,1.16,1.16,0,0,0,.42-.24,20.55,20.55,0,0,0,5.52-5,20.88,20.88,0,0,0,3.4-6.62,7.06,7.06,0,0,1,.42-1.56v-.32a4.49,4.49,0,0,0,.2-1c0-.3.07-.62.12-.95v-.15a6.75,6.75,0,0,0,.09-1v-2.29a6.62,6.62,0,0,0-.09-1Zm82.86,15a16.54,16.54,0,0,1,2.17,8.48,16.82,16.82,0,0,1-1.39,6.8,18.48,18.48,0,0,1-3.78,5.61,17.53,17.53,0,0,1-5.56,3.81,16.77,16.77,0,0,1-6.79,1.39H991.89V595.34h21.46a8.5,8.5,0,0,0,3.36-.66,8.09,8.09,0,0,0,2.71-1.84,8.8,8.8,0,0,0,1.8-2.75,8.44,8.44,0,0,0,.65-3.27,8.4,8.4,0,0,0-8.52-8.61H991.89v-7.7h22.94a15.74,15.74,0,0,1,6.23,1.27,16.56,16.56,0,0,1,5.16,3.49,16.17,16.17,0,0,1,3.47,5.16,15.53,15.53,0,0,1,1.27,6.3,12.92,12.92,0,0,1-.53,3.82,15,15,0,0,1-1.39,3.24,17.7,17.7,0,0,1-2,2.73,21.78,21.78,0,0,1-2.24,2.26A14.8,14.8,0,0,1,1030.6,604.47Zm-6.92,8.48a9.64,9.64,0,0,0-.78-3.85,10.07,10.07,0,0,0-2.13-3.15,10.34,10.34,0,0,0-3.15-2.14,9.64,9.64,0,0,0-3.85-.78h-13.11v19.83h13.11a9.18,9.18,0,0,0,3.85-.82,11,11,0,0,0,3.15-2.16,10.16,10.16,0,0,0,2.13-3.17A9.31,9.31,0,0,0,1023.68,613Zm53.16,17.61h8.77v-60h-8.77Zm94.87-41.12a6.76,6.76,0,0,1-.13-1,3,3,0,0,0-.21-.91v-.4c-.1-.27-.18-.52-.25-.74s-.1-.47-.15-.74A20.46,20.46,0,0,0,1162,574a24.53,24.53,0,0,0-5.93-2.58c-1.08-.31-7.07-.56-13.1-.71s-12.1-.24-13.32-.24v7.71h20.55a10.85,10.85,0,0,1,5,1.15,13.29,13.29,0,0,1,3.89,3,14.71,14.71,0,0,1,2.62,4.31,13.3,13.3,0,0,1,0,10.07,15.54,15.54,0,0,1-2.62,4.31,13.09,13.09,0,0,1-3.89,3,10.85,10.85,0,0,1-5,1.15h-20.55v7.69c.77,0,21,0,21.62-.08s1.32-.13,2-.24l9.26,18.1h9.26l-10.57-20.8a.91.91,0,0,1,.4-.25,1,1,0,0,0,.41-.24,20.64,20.64,0,0,0,5.54-5,21.52,21.52,0,0,0,3.4-6.62,6.89,6.89,0,0,1,.4-1.56v-.32a4,4,0,0,0,.21-1,6.74,6.74,0,0,1,.13-.95v-.15a6.71,6.71,0,0,0,.08-1v-2.29a6.61,6.61,0,0,0-.08-1Zm91.91-.53a29.91,29.91,0,0,1,2.28,11.67,30.6,30.6,0,0,1-2.2,11.67,30,30,0,0,1-6.11,9.51,29,29,0,0,1-9.21,6.43,28.08,28.08,0,0,1-11.55,2.37h-21v-60h21a27.5,27.5,0,0,1,11.35,2.39,29.14,29.14,0,0,1,9.2,6.47A30.8,30.8,0,0,1,1263.62,588.91Zm-6.81,11.63a24.14,24.14,0,0,0-1.55-8.66,21.38,21.38,0,0,0-4.39-7.09,21,21,0,0,0-6.68-4.81,19.84,19.84,0,0,0-8.35-1.77h-11.21v44.65h11.21a20,20,0,0,0,8.45-1.76,20.53,20.53,0,0,0,6.62-4.8,22.17,22.17,0,0,0,4.35-7.09A24.24,24.24,0,0,0,1256.81,600.54Zm-77.81-208a2.11,2.11,0,1,0,2.11-2.11A2.11,2.11,0,0,0,1179,392.56Zm-22.52,16.82h0c3.43-4.16,12.07-.86,15.08,0v-9.3l-5.83-4.67-37.92,3,18.08,5.4A31.08,31.08,0,0,1,1156.48,409.38Zm13.78-27.78-1.09.18c-.8.14-22.73,6-33.59,14.47l30.56-2.85Zm213.06,316.25-45.09-64.37-52.88-71.42,2.7-5.7-.09-.25c-6.24-16.87-15.6-42.38-15.85-43.55-9.09-45.45-31.34-70.5-40.48-79.16l-.49-.47-.44.51c-.93,1-1.42,1.09-6.55,1.38-3.06.17-7.68.44-14.86,1.12l-.38,0-.15.35c-2.84,6.37-4.6,10.35-5.7,12.88-1.89,4.31-1.89,4.31-2.31,4.77-.1.12-.22.24-.36.42l-.19.24L1204,473l51.51,73.76c-11.49-15.27-35-45.5-40.6-52.88-11.23-14.9-12.68-16.82-12.72-17.21,0-.08-.66-3.18-.69-3.28l-3.4-16.31-.85,1c-6.62,7.49-10.52,12.12-13.1,15.2-1.66,2-3.77,4.34-5.81,6.48a123.62,123.62,0,0,0,3.54,14.64l.09.21c7.85,17.55,13,29.15,26.54,42.18l6.68,4.68v22h.63c3.57.13,7,.08,10.3,0,13.17-.21,24.52-.38,36.17,10.55a425.44,425.44,0,0,1,53.57,60.93c1.46,2,2.67,3.63,3.61,4.87l1.07-.74-21.4-35.58,46.15,64.08,1.07-.74L1312,613.5l46.85,62.27,1.07-.76-30.81-46.42,53.15,70Zm-197-306.4c-4-4.16-7.89-3.89-10.52,2.13.61.84,2.67,3.34,5.05,3.18C1182.81,396.65,1184.66,394.86,1186.35,391.45Zm42.94,40.46-22.07,1.64-8.29,18.66-21,24.42-.27-1.27c-.08-.35-7.56-35.21-8.64-48.84a12.52,12.52,0,0,0-.45-2.47c-1.12-3.92-4.11-8.44-8.9-13.42l-.84-.9,1.22-.19a8.67,8.67,0,0,1,1.52-.11c3.07,0,7.17,1.11,12.08,3.28V398.45l-5.24-4.19c1-3.12,1.8-5.24,2.39-6.78h0c.31-.82.54-1.47.7-2l1.35-4.05c32,0,42.31,18.25,42.39,18.44Z"/></svg>