<svg xmlns="http://www.w3.org/2000/svg" viewBox="0 0 1024 1024" role="img" aria-labelledby="title desc">
  <title id="title">Weevrbird weaverbird mark</title>
  <desc id="desc">A simplified weaverbird with woven body lines for the Weevrbird app.</desc>
  <defs>
    <clipPath id="bodyClip">
      <path d="M232 542c0-168 125-292 298-292 161 0 281 104 281 250 0 154-132 276-298 276-162 0-281-97-281-234Z"/>
    </clipPath>
    <linearGradient id="bodyGradient" x1="224" x2="786" y1="260" y2="770" gradientUnits="userSpaceOnUse">
      <stop offset="0" stop-color="#DBA85B"/>
      <stop offset="0.48" stop-color="#A6B39A"/>
      <stop offset="1" stop-color="#0F3D2E"/>
    </linearGradient>
  </defs>
  <path fill="#0F3D2E" d="M212 546c0-183 138-321 326-321 177 0 309 115 309 276 0 170-146 306-330 306-180 0-305-108-305-261Z"/>
  <path fill="url(#bodyGradient)" d="M232 542c0-168 125-292 298-292 161 0 281 104 281 250 0 154-132 276-298 276-162 0-281-97-281-234Z"/>
  <g clip-path="url(#bodyClip)" fill="none" stroke-linecap="round">
    <path stroke="#FFFDF8" stroke-opacity=".74" stroke-width="46" d="M168 455c154-82 313-93 478-33 96 35 171 42 257 2"/>
    <path stroke="#0F3D2E" stroke-opacity=".64" stroke-width="38" d="M154 543c176-76 337-74 483 5 92 50 182 56 287 19"/>
    <path stroke="#FFFDF8" stroke-opacity=".58" stroke-width="34" d="M176 638c145-54 279-47 402 22 93 52 188 72 297 41"/>
    <path stroke="#DBA85B" stroke-opacity=".86" stroke-width="30" d="M254 353c35 142 124 253 267 333"/>
    <path stroke="#C86F4A" stroke-opacity=".78" stroke-width="28" d="M371 290c28 168 122 305 284 411"/>
    <path stroke="#FFFDF8" stroke-opacity=".45" stroke-width="24" d="M509 274c-2 166 60 316 186 450"/>
  </g>
  <path fill="#FFFDF8" fill-opacity=".9" d="M394 576c32-76 98-128 178-139 66-9 126 10 174 48-42 66-106 111-184 123-63 10-122-.6-168-32Z"/>
  <path fill="#0F3D2E" fill-opacity=".88" d="M442 568c29-44 76-72 130-78 39-5 77 2 110 20-34 30-72 49-115 55-45 7-86 2-125 3Z"/>
  <path fill="#0F3D2E" d="M664 214c73 0 134 47 155 114l90 32-82 44c-14 81-83 142-166 142-91 0-165-74-165-166s76-166 168-166Z"/>
  <path fill="#A6B39A" d="M653 260c55 0 100 45 100 101s-45 101-100 101-100-45-100-101 45-101 100-101Z"/>
  <path fill="#FFFDF8" d="M696 346c18 0 32 14 32 31s-14 31-32 31-32-14-32-31 14-31 32-31Z"/>
  <path fill="#0E1715" d="M707 360c9 0 17 8 17 17s-8 17-17 17-17-8-17-17 8-17 17-17Z"/>
  <path fill="#DBA85B" d="M804 342 935 389 803 432c17-29 17-61 1-90Z"/>
  <path fill="#0F3D2E" d="M274 703 97 823c44-90 100-161 168-212 10 34 13 62 9 92Z"/>
  <path fill="#A6B39A" d="M309 743 198 921c11-99 41-182 91-249 20 24 26 47 20 71Z"/>
  <path fill="#FFFDF8" fill-opacity=".86" d="M515 766c-99 0-181-33-229-92 38 81 124 130 236 130 113 0 217-53 278-137-68 64-167 99-285 99Z"/>
</svg>
